<?xml version="1.0" encoding="utf-8"?>
<!-- Generator: Adobe Illustrator 24.3.0, SVG Export Plug-In . SVG Version: 6.00 Build 0)  -->
<svg version="1.1" id="_x32_" xmlns="http://www.w3.org/2000/svg" xmlns:xlink="http://www.w3.org/1999/xlink" x="0px" y="0px"
	 viewBox="0 0 512 512" style="enable-background:new 0 0 512 512;" xml:space="preserve">
<style type="text/css">
	.st0{fill:#F5C123;}
</style>
<g>
	<path class="st0" d="M403.9,292.6c0,98-43.7,130.2-43.7,166.9v6.7c0,11.6-9.4,21-21,21H228.4c-11.6,0-21-9.4-21-21V458
		c0-54.8-33.6-58.6-96.1-237c-8.8-23.4,1.9-33.6,15.6-33.6c11.4,0,24.8,7,30.7,19.2c13.6,32,18.5,49.5,21.1,49.5
		c1.1,0,1.8-3.1,2.6-9.5c-0.1-3.5,0.1-159.2,0.1-159.2c0-12.4,10-22.4,22.4-22.4c12.3,0,22.4,10,22.4,22.4v90.5
		c4.6-0.7,9.4-1.2,14.4-1.2V47.1c0-12.3,10-22.4,22.4-22.4c12.3,0,22.4,10.1,22.4,22.4v135c4.8,0.9,9.6,1.9,14.4,3v-130
		c0-12.4,10-22.4,22.4-22.4c12.3,0,22.4,10,22.4,22.4v139.3c5.1,1,9.9,2.1,14.5,3.2V86.9c0-12.4,10-22.4,22.4-22.4
		c12.4,0,22.4,10,22.4,22.4L403.9,292.6L403.9,292.6z"/>
</g>
</svg>
